# Blender 4.4.3
# www.blender.org
o Sphere
v 0.143506 0.500000 -0.346455
v 0.265165 0.500000 -0.265165
v 0.346455 0.500000 -0.143506
v 0.375000 0.500000 -0.000000
v 0.346455 0.500000 0.143506
v 0.265165 0.500000 0.265165
v 0.143506 0.500000 0.346455
v 0.000000 0.500000 0.375000
v -0.143506 0.500000 0.346454
v -0.265165 0.500000 0.265165
v -0.346455 0.500000 0.143506
v -0.375000 0.500000 -0.000000
v -0.346455 0.500000 -0.143506
v -0.265165 0.500000 -0.265165
v -0.143506 0.500000 -0.346455
v 0.000000 0.500000 -0.375000
v 0.107630 0.500000 -0.259841
v 0.198874 0.500000 -0.198874
v 0.259841 0.500000 -0.107630
v 0.281250 0.500000 -0.000000
v 0.259841 0.500000 0.107630
v 0.198874 0.500000 0.198874
v 0.107630 0.500000 0.259841
v 0.000000 0.500000 0.281250
v -0.107630 0.500000 0.259841
v -0.198874 0.500000 0.198873
v -0.259841 0.500000 0.107629
v -0.281250 0.500000 -0.000000
v -0.259841 0.500000 -0.107630
v -0.198874 0.500000 -0.198874
v -0.107630 0.500000 -0.259841
v 0.000000 0.500000 -0.281250
v 0.000000 0.500000 -0.187500
v 0.132583 0.500000 -0.132583
v 0.187500 0.500000 -0.000000
v 0.132583 0.500000 0.132582
v -0.000059 0.625000 -0.000206
v 0.000000 0.500000 0.187500
v -0.132582 0.500000 0.132582
v -0.187500 0.500000 -0.000000
v -0.132582 0.500000 -0.132583
v 0.265165 -0.000000 -0.176777
v 0.265165 0.250000 -0.176777
v 0.176777 -0.000000 -0.265165
v 0.176777 0.250000 -0.265165
v 0.353553 -0.000000 -0.265165
v 0.353553 0.250000 -0.265165
v 0.265165 -0.000000 -0.353553
v 0.265165 0.250000 -0.353553
v 0.220971 0.312500 -0.132583
v 0.132583 0.312500 -0.220971
v 0.220971 0.437500 -0.132583
v 0.132583 0.437500 -0.220971
v -0.265165 0.000000 0.176777
v -0.265165 0.250000 0.176777
v -0.176777 0.000000 0.265165
v -0.176777 0.250000 0.265165
v -0.353553 0.000000 0.265165
v -0.353553 0.250000 0.265165
v -0.265165 0.000000 0.353553
v -0.265165 0.250000 0.353553
v -0.220971 0.312500 0.132583
v -0.132583 0.312500 0.220971
v -0.220971 0.437500 0.132583
v -0.132583 0.437500 0.220971
v -0.176777 -0.000000 -0.265165
v -0.176777 0.250000 -0.265165
v -0.265165 -0.000000 -0.176777
v -0.265165 0.250000 -0.176777
v -0.265165 -0.000000 -0.353553
v -0.265165 0.250000 -0.353553
v -0.353553 -0.000000 -0.265165
v -0.353553 0.250000 -0.265165
v -0.132583 0.312500 -0.220971
v -0.220971 0.312500 -0.132583
v -0.132583 0.437500 -0.220971
v -0.220971 0.437500 -0.132583
v 0.176777 0.000000 0.265165
v 0.176777 0.250000 0.265165
v 0.265165 0.000000 0.176777
v 0.265165 0.250000 0.176777
v 0.265165 0.000000 0.353553
v 0.265165 0.250000 0.353553
v 0.353553 0.000000 0.265165
v 0.353553 0.250000 0.265165
v 0.132583 0.312500 0.220971
v 0.220971 0.312500 0.132583
v 0.132583 0.437500 0.220971
v 0.220971 0.437500 0.132583
v 0.066291 0.500000 -0.160041
v 0.160041 0.500000 -0.066291
v 0.160041 0.500000 0.066291
v 0.066291 0.500000 0.160041
v -0.066291 0.500000 0.160041
v -0.160041 0.500000 0.066291
v -0.160041 0.500000 -0.066291
v -0.066291 0.500000 -0.160041
v 0.000000 0.356494 -0.346455
v 0.000000 0.153545 -0.143506
v 0.143506 0.500000 -0.346455
v 0.132583 0.356494 -0.320083
v 0.101474 0.234835 -0.244981
v 0.054917 0.153545 -0.132583
v 0.265165 0.500000 -0.265165
v 0.244981 0.356494 -0.244981
v 0.187500 0.234835 -0.187500
v 0.101474 0.153545 -0.101474
v 0.346455 0.500000 -0.143506
v 0.320082 0.356494 -0.132583
v 0.244980 0.234835 -0.101474
v 0.132582 0.153545 -0.054918
v 0.375000 0.500000 -0.000000
v 0.346455 0.356494 -0.000000
v 0.265165 0.234835 -0.000000
v 0.143506 0.153545 -0.000000
v 0.346455 0.500000 0.143506
v 0.320082 0.356494 0.132582
v 0.244980 0.234835 0.101474
v 0.132582 0.153545 0.054917
v 0.265165 0.500000 0.265165
v 0.244980 0.356494 0.244980
v 0.187500 0.234835 0.187500
v 0.101474 0.153545 0.101474
v 0.143506 0.500000 0.346455
v 0.132582 0.356494 0.320082
v 0.101474 0.234835 0.244980
v 0.054917 0.153545 0.132582
v 0.000000 0.500000 0.375000
v 0.000000 0.356494 0.346455
v 0.000000 0.234835 0.265165
v 0.000000 0.153545 0.143506
v -0.143506 0.500000 0.346454
v -0.132583 0.356494 0.320082
v -0.101474 0.234835 0.244980
v -0.054918 0.153545 0.132582
v -0.265165 0.500000 0.265165
v -0.244981 0.356494 0.244980
v -0.187500 0.234835 0.187500
v -0.101474 0.153545 0.101474
v -0.346455 0.500000 0.143506
v -0.320082 0.356494 0.132582
v -0.244980 0.234835 0.101474
v -0.132582 0.153545 0.054917
v -0.375000 0.500000 -0.000000
v -0.346455 0.356494 -0.000000
v -0.265165 0.234835 -0.000000
v -0.143506 0.153545 -0.000000
v -0.346455 0.500000 -0.143506
v -0.320082 0.356494 -0.132583
v -0.244980 0.234835 -0.101474
v -0.132582 0.153545 -0.054918
v -0.265165 0.500000 -0.265165
v -0.244980 0.356494 -0.244981
v -0.187500 0.234835 -0.187500
v -0.101474 0.153545 -0.101474
v -0.143506 0.500000 -0.346455
v -0.132582 0.356494 -0.320083
v -0.101474 0.234835 -0.244981
v -0.054917 0.153545 -0.132583
v 0.000000 0.500000 -0.375000
v 0.000000 0.234835 -0.265165
v 0.000000 0.125000 -0.000000
v 0.000000 0.662380 -0.093750
v 0.000000 0.500000 -0.187500
v 0.066291 0.662380 -0.066291
v 0.114820 0.593750 -0.114820
v 0.132583 0.500000 -0.132583
v 0.093750 0.662380 -0.000000
v 0.162380 0.593750 -0.000000
v 0.187500 0.500000 -0.000000
v 0.066291 0.662380 0.066291
v 0.114820 0.593750 0.114820
v 0.132583 0.500000 0.132582
v 0.000000 0.662380 0.093750
v 0.000000 0.593750 0.162380
v 0.000000 0.500000 0.187500
v -0.066291 0.662380 0.066291
v -0.114820 0.593750 0.114820
v -0.132582 0.500000 0.132582
v -0.093750 0.662380 -0.000000
v -0.162380 0.593750 -0.000000
v -0.187500 0.500000 -0.000000
v -0.066291 0.662380 -0.066291
v -0.114820 0.593750 -0.114820
v -0.132582 0.500000 -0.132583
v 0.000000 0.593750 -0.162380
v 0.000000 0.687500 -0.000000
v 0.066291 0.500000 -0.160041
v 0.160041 0.500000 -0.066291
v 0.160041 0.500000 0.066291
v 0.066291 0.500000 0.160041
v -0.066291 0.500000 0.160041
v -0.160041 0.500000 0.066291
v -0.160041 0.500000 -0.066291
v -0.066291 0.500000 -0.160041
vn -0.0000 1.0000 -0.0000
vn -0.7071 -0.0000 0.7071
vn -0.7071 -0.0000 -0.7071
vn 0.7071 -0.0000 -0.7071
vn 0.7071 -0.0000 0.7071
vn -0.0000 -1.0000 -0.0000
vn -0.5000 -0.7071 0.5000
vn 0.5000 0.7071 -0.5000
vn 0.5000 -0.7071 -0.5000
vn -0.5000 0.7071 0.5000
vn 0.5000 -0.7071 0.5000
vn -0.5000 0.7071 -0.5000
vn -0.5000 -0.7071 -0.5000
vn 0.5000 0.7071 0.5000
vn -0.0000 -0.9152 -0.4031
vn 0.1543 -0.9152 -0.3724
vn -0.0000 -0.6952 -0.7189
vn 0.3549 -0.3744 -0.8567
vn 0.2751 -0.6952 -0.6641
vn -0.0000 -0.1951 -0.9808
vn -0.0000 -0.3744 -0.9273
vn 0.2850 -0.9152 -0.2850
vn 0.3753 -0.1951 -0.9061
vn 0.6557 -0.3744 -0.6557
vn 0.5083 -0.6952 -0.5083
vn 0.6935 -0.1951 -0.6935
vn 0.8567 -0.3744 -0.3549
vn 0.3724 -0.9152 -0.1543
vn 0.6641 -0.6952 -0.2751
vn 0.4031 -0.9152 -0.0000
vn 0.9273 -0.3744 -0.0000
vn 0.7189 -0.6952 -0.0000
vn 0.9808 -0.1951 -0.0000
vn 0.3724 -0.9152 0.1543
vn 0.8567 -0.3744 0.3549
vn 0.6641 -0.6952 0.2751
vn 0.5083 -0.6952 0.5083
vn 0.2850 -0.9152 0.2850
vn 0.9061 -0.1951 0.3753
vn 0.6557 -0.3744 0.6557
vn 0.1543 -0.9152 0.3724
vn 0.2751 -0.6952 0.6641
vn 0.6935 -0.1951 0.6935
vn 0.3549 -0.3744 0.8567
vn -0.0000 -0.9152 0.4031
vn -0.0000 -0.6952 0.7189
vn 0.3753 -0.1951 0.9061
vn -0.0000 -0.3744 0.9273
vn -0.2751 -0.6952 0.6641
vn -0.1543 -0.9152 0.3724
vn -0.0000 -0.1951 0.9808
vn -0.3549 -0.3744 0.8567
vn -0.2850 -0.9152 0.2850
vn -0.3753 -0.1951 0.9061
vn -0.6557 -0.3744 0.6557
vn -0.5083 -0.6952 0.5083
vn -0.3724 -0.9152 0.1543
vn -0.6641 -0.6952 0.2751
vn -0.6935 -0.1951 0.6935
vn -0.8567 -0.3744 0.3549
vn -0.7189 -0.6952 -0.0000
vn -0.4031 -0.9152 -0.0000
vn -0.9061 -0.1951 0.3753
vn -0.9273 -0.3744 -0.0000
vn -0.3724 -0.9152 -0.1543
vn -0.9808 -0.1951 -0.0000
vn -0.8567 -0.3744 -0.3549
vn -0.6641 -0.6952 -0.2751
vn -0.9061 -0.1951 -0.3753
vn -0.6557 -0.3744 -0.6557
vn -0.2850 -0.9152 -0.2850
vn -0.5083 -0.6952 -0.5083
vn -0.1543 -0.9152 -0.3724
vn -0.2751 -0.6952 -0.6641
vn -0.6935 -0.1951 -0.6935
vn -0.3549 -0.3744 -0.8567
vn -0.3753 -0.1951 -0.9061
vn 0.6225 0.4744 -0.6225
vn 0.6830 0.2588 -0.6830
vn 0.3715 0.2403 -0.8968
vn -0.0000 0.8383 -0.5452
vn -0.0000 0.4744 -0.8803
vn 0.8803 0.4744 -0.0000
vn 0.9659 0.2588 -0.0000
vn 0.8968 0.2403 -0.3715
vn 0.5452 0.8383 -0.0000
vn 0.6225 0.4744 0.6225
vn 0.6830 0.2588 0.6830
vn 0.8968 0.2403 0.3715
vn -0.0000 0.8383 0.5452
vn -0.0000 0.4744 0.8803
vn -0.0000 0.2588 0.9659
vn 0.3715 0.2403 0.8968
vn -0.6225 0.4744 0.6225
vn -0.6830 0.2588 0.6830
vn -0.3715 0.2403 0.8968
vn -0.3855 0.8383 0.3855
vn -0.8803 0.4744 -0.0000
vn -0.9659 0.2588 -0.0000
vn -0.8968 0.2403 0.3715
vn -0.5452 0.8383 -0.0000
vn -0.6225 0.4744 -0.6225
vn -0.6830 0.2588 -0.6830
vn -0.8968 0.2403 -0.3715
vn -0.3855 0.8383 -0.3855
vn -0.0000 0.2588 -0.9659
vn -0.3715 0.2403 -0.8968
vn 0.3855 0.8383 0.3855
vn 0.3855 0.8383 -0.3855
vn 0.9061 -0.1951 -0.3753
vt 0.700000 0.555556
vt 0.750000 0.444444
vt 0.750000 0.555556
vt 0.800000 0.555556
vt 0.050000 0.555556
vt 0.000000 0.444444
vt 0.050000 0.444444
vt 0.100000 0.444444
vt 0.100000 0.555556
vt 0.250000 0.444444
vt 0.275000 0.333333
vt 0.300000 0.444444
vt 0.150000 0.555556
vt 0.300000 0.333333
vt 0.350000 0.444444
vt 0.300000 0.555556
vt 0.350000 0.555556
vt 0.400000 0.555556
vt 0.150000 0.444444
vt 0.200000 0.555556
vt 0.450000 0.444444
vt 0.450000 0.555556
vt 0.500000 0.555556
vt 0.500000 0.444444
vt 0.250000 0.555556
vt 0.550000 0.444444
vt 0.550000 0.555556
vt 0.600000 0.555556
vt 0.650000 0.555556
vt 0.600000 0.444444
vt 0.650000 0.444444
vt 0.700000 0.444444
vt 1.000000 0.444444
vt 0.950000 0.222222
vt 1.000000 0.222222
vt 0.950000 0.444444
vt 0.900000 0.222222
vt 0.900000 0.444444
vt 0.850000 0.222222
vt 0.850000 0.444444
vt 0.800000 0.222222
vt 0.850000 0.111111
vt 0.900000 0.111111
vt 1.000000 0.500000
vt 0.950000 0.611111
vt 0.950000 0.500000
vt 0.850000 0.666667
vt 0.800000 0.611111
vt 0.800000 0.500000
vt 0.900000 0.666667
vt 1.000000 0.611111
vt 0.375000 0.333333
vt 0.400000 0.444444
vt 0.400000 0.333333
vt 0.425000 0.333333
vt 0.475000 0.333333
vt 0.500000 0.333333
vt 0.525000 0.333333
vt 0.575000 0.333333
vt 0.600000 0.333333
vt 0.625000 0.333333
vt 0.200000 0.333333
vt 0.200000 0.444444
vt 0.175000 0.333333
vt 0.100000 0.333333
vt 0.075000 0.333333
vt -0.000000 0.333333
vt 0.025000 0.333333
vt 0.775000 0.333333
vt 0.800000 0.444444
vt 0.700000 0.333333
vt 0.725000 0.333333
vt 0.675000 0.333333
vt 0.000000 0.555556
vt 0.250000 0.333333
vt 0.325000 0.333333
vt 0.350000 0.333333
vt 0.450000 0.333333
vt 0.550000 0.333333
vt 0.225000 0.333333
vt 0.150000 0.333333
vt 0.125000 0.333333
vt 0.050000 0.333333
vt 0.750000 0.333333
vt 0.650000 0.333333
vt 0.225000 1.000000
vt 0.200000 0.888889
vt 0.225000 0.888889
vt 0.200000 0.777778
vt 0.250000 0.666667
vt 0.250000 0.777778
vt 0.200000 0.666667
vt 0.275000 0.888889
vt 0.250000 0.888889
vt 0.300000 0.666667
vt 0.275000 1.000000
vt 0.300000 0.777778
vt 0.350000 0.666667
vt 0.325000 1.000000
vt 0.300000 0.888889
vt 0.325000 0.888889
vt 0.350000 0.777778
vt 0.375000 1.000000
vt 0.350000 0.888889
vt 0.375000 0.888889
vt 0.400000 0.666667
vt 0.400000 0.777778
vt 0.425000 0.888889
vt 0.400000 0.888889
vt 0.450000 0.666667
vt 0.425000 1.000000
vt 0.450000 0.777778
vt 0.450000 0.888889
vt 0.500000 0.777778
vt 0.475000 0.888889
vt 0.500000 0.666667
vt 0.475000 1.000000
vt 0.525000 1.000000
vt 0.500000 0.888889
vt 0.525000 0.888889
vt 0.550000 0.777778
vt 0.550000 0.666667
vt 0.575000 1.000000
vt 0.550000 0.888889
vt 0.575000 0.888889
vt 0.600000 0.777778
vt 0.600000 0.666667
vt 0.600000 0.888889
vt 0.650000 0.777778
vt 0.625000 0.888889
vt 0.650000 0.666667
vt 0.625000 1.000000
vt 0.675000 0.888889
vt 0.650000 0.888889
vt 0.700000 0.666667
vt 0.675000 1.000000
vt 0.700000 0.777778
vt 0.725000 1.000000
vt 0.700000 0.888889
vt 0.725000 0.888889
vt 0.750000 0.777778
vt 0.750000 0.666667
vt 0.800000 0.777778
vt 0.750000 0.888889
vt 0.775000 0.888889
vt 0.800000 0.666667
vt 0.775000 1.000000
vt -0.000000 0.777778
vt 0.025000 0.888889
vt -0.000000 0.888889
vt 0.050000 0.666667
vt 0.000000 0.666667
vt 0.025000 1.000000
vt 0.050000 0.777778
vt 0.100000 0.666667
vt 0.075000 1.000000
vt 0.050000 0.888889
vt 0.075000 0.888889
vt 0.100000 0.777778
vt 0.125000 1.000000
vt 0.100000 0.888889
vt 0.125000 0.888889
vt 0.150000 0.777778
vt 0.150000 0.666667
vt 0.175000 0.888889
vt 0.150000 0.888889
vt 0.175000 1.000000
vt 0.550000 0.222222
vt 0.525000 0.111111
vt 0.500000 0.222222
vt 0.600000 0.222222
vt 0.600000 0.111111
vt 0.625000 0.111111
vt 0.650000 0.222222
vt 0.700000 0.111111
vt 0.700000 0.222222
vt 0.725000 0.111111
vt 0.750000 0.222222
vt 0.775000 0.111111
vt 0.800000 0.333333
vt 0.425000 0.111111
vt 0.450000 0.222222
vt 0.400000 0.222222
vt 0.475000 0.111111
vt 0.625000 -0.000000
vt 0.650000 0.111111
vt 0.575000 0.111111
vt 0.575000 -0.000000
vt 0.675000 0.111111
vt 0.675000 0.000000
vt 0.750000 0.111111
vt 0.725000 -0.000000
vt 0.800000 0.111111
vt 0.775000 -0.000000
vt 0.450000 0.111111
vt 0.425000 -0.000000
vt 0.500000 0.111111
vt 0.475000 -0.000000
vt 0.525000 0.000000
vt 0.550000 0.111111
s 1
f 10/1/1 27/2/1 11/3/1
f 27/2/1 12/4/1 11/3/1
f 13/5/1 28/6/1 29/7/1
f 13/5/1 30/8/1 14/9/1
f 17/10/1 34/11/1 18/12/1
f 30/8/1 15/13/1 14/9/1
f 34/14/1 19/15/1 18/12/1
f 2/16/1 19/15/1 3/17/1
f 19/15/1 4/18/1 3/17/1
f 31/19/1 16/20/1 15/13/1
f 4/18/1 21/21/1 5/22/1
f 6/23/1 21/21/1 22/24/1
f 16/20/1 17/10/1 1/25/1
f 6/23/1 23/26/1 7/27/1
f 23/26/1 8/28/1 7/27/1
f 2/16/1 17/10/1 18/12/1
f 9/29/1 24/30/1 25/31/1
f 10/1/1 25/31/1 26/32/1
f 43/33/2 44/34/2 42/35/2
f 45/36/3 48/37/3 44/34/3
f 49/38/4 46/39/4 48/37/4
f 47/40/5 42/41/5 46/39/5
f 48/37/6 42/42/6 44/43/6
f 43/44/7 51/45/7 45/46/7
f 49/38/8 52/47/8 47/40/8
f 47/40/5 50/48/5 43/49/5
f 45/46/3 53/50/3 49/38/3
f 55/33/4 56/34/4 54/35/4
f 57/36/5 60/37/5 56/34/5
f 61/38/2 58/39/2 60/37/2
f 59/40/3 54/41/3 58/39/3
f 56/43/6 58/39/6 54/42/6
f 55/44/9 63/45/9 57/46/9
f 59/40/10 65/50/10 64/47/10
f 64/47/3 55/49/3 59/40/3
f 57/46/5 65/50/5 61/38/5
f 67/33/5 68/34/5 66/35/5
f 69/36/2 72/37/2 68/34/2
f 73/38/3 70/39/3 72/37/3
f 71/40/4 66/41/4 70/39/4
f 72/37/6 66/42/6 68/43/6
f 67/44/11 75/45/11 69/46/11
f 73/38/12 76/47/12 71/40/12
f 76/47/4 67/49/4 71/40/4
f 73/38/2 75/45/2 77/50/2
f 79/33/3 80/34/3 78/35/3
f 81/36/4 84/37/4 80/34/4
f 85/38/5 82/39/5 84/37/5
f 83/40/2 78/41/2 82/39/2
f 80/43/6 82/39/6 78/42/6
f 81/46/13 86/51/13 87/45/13
f 83/40/14 89/50/14 88/47/14
f 88/47/2 79/49/2 83/40/2
f 81/46/4 89/50/4 85/38/4
f 19/15/1 35/52/1 20/53/1
f 21/21/1 35/54/1 92/55/1
f 21/21/1 36/56/1 22/24/1
f 23/26/1 36/57/1 93/58/1
f 23/26/1 38/59/1 24/30/1
f 25/31/1 38/60/1 94/61/1
f 33/62/1 17/10/1 32/63/1
f 31/19/1 33/64/1 32/63/1
f 41/65/1 31/19/1 30/8/1
f 29/7/1 41/66/1 30/8/1
f 29/7/1 40/67/1 96/68/1
f 27/2/1 40/69/1 28/70/1
f 27/2/1 39/71/1 95/72/1
f 25/31/1 39/73/1 26/32/1
f 10/1/1 26/32/1 27/2/1
f 27/2/1 28/70/1 12/4/1
f 13/5/1 12/74/1 28/6/1
f 13/5/1 29/7/1 30/8/1
f 17/10/1 90/75/1 34/11/1
f 30/8/1 31/19/1 15/13/1
f 34/14/1 91/76/1 19/15/1
f 2/16/1 18/12/1 19/15/1
f 19/15/1 20/53/1 4/18/1
f 31/19/1 32/63/1 16/20/1
f 4/18/1 20/53/1 21/21/1
f 6/23/1 5/22/1 21/21/1
f 16/20/1 32/63/1 17/10/1
f 6/23/1 22/24/1 23/26/1
f 23/26/1 24/30/1 8/28/1
f 2/16/1 1/25/1 17/10/1
f 9/29/1 8/28/1 24/30/1
f 10/1/1 9/29/1 25/31/1
f 43/33/2 45/36/2 44/34/2
f 45/36/3 49/38/3 48/37/3
f 49/38/4 47/40/4 46/39/4
f 47/40/5 43/70/5 42/41/5
f 48/37/6 46/39/6 42/42/6
f 43/44/7 50/51/7 51/45/7
f 49/38/8 53/50/8 52/47/8
f 47/40/5 52/47/5 50/48/5
f 45/46/3 51/45/3 53/50/3
f 55/33/4 57/36/4 56/34/4
f 57/36/5 61/38/5 60/37/5
f 61/38/2 59/40/2 58/39/2
f 59/40/3 55/70/3 54/41/3
f 56/43/6 60/37/6 58/39/6
f 55/44/9 62/51/9 63/45/9
f 59/40/10 61/38/10 65/50/10
f 64/47/3 62/48/3 55/49/3
f 57/46/5 63/45/5 65/50/5
f 67/33/5 69/36/5 68/34/5
f 69/36/2 73/38/2 72/37/2
f 73/38/3 71/40/3 70/39/3
f 71/40/4 67/70/4 66/41/4
f 72/37/6 70/39/6 66/42/6
f 67/44/11 74/51/11 75/45/11
f 73/38/12 77/50/12 76/47/12
f 76/47/4 74/48/4 67/49/4
f 73/38/2 69/46/2 75/45/2
f 79/33/3 81/36/3 80/34/3
f 81/36/4 85/38/4 84/37/4
f 85/38/5 83/40/5 82/39/5
f 83/40/2 79/70/2 78/41/2
f 80/43/6 84/37/6 82/39/6
f 81/46/13 79/44/13 86/51/13
f 83/40/14 85/38/14 89/50/14
f 88/47/2 86/48/2 79/49/2
f 81/46/4 87/45/4 89/50/4
f 19/15/1 91/77/1 35/52/1
f 21/21/1 20/53/1 35/54/1
f 21/21/1 92/78/1 36/56/1
f 23/26/1 22/24/1 36/57/1
f 23/26/1 93/79/1 38/59/1
f 25/31/1 24/30/1 38/60/1
f 33/62/1 90/80/1 17/10/1
f 31/19/1 97/81/1 33/64/1
f 41/65/1 97/82/1 31/19/1
f 29/7/1 96/83/1 41/66/1
f 29/7/1 28/6/1 40/67/1
f 27/2/1 95/84/1 40/69/1
f 27/2/1 26/32/1 39/71/1
f 25/31/1 94/85/1 39/73/1
f 162/86/6 99/87/15 103/88/16
f 161/89/17 101/90/18 102/91/19
f 161/89/17 103/88/16 99/87/15
f 160/20/20 101/90/18 98/92/21
f 102/91/19 107/93/22 103/94/16
f 100/25/23 105/95/24 101/90/18
f 162/96/6 103/94/16 107/93/22
f 102/91/19 105/95/24 106/97/25
f 104/16/26 109/98/27 105/95/24
f 162/99/6 107/100/22 111/101/28
f 105/95/24 110/102/29 106/97/25
f 106/97/25 111/101/28 107/100/22
f 162/103/6 111/104/28 115/105/30
f 110/102/29 113/106/31 114/107/32
f 110/102/29 115/105/30 111/104/28
f 109/98/27 112/18/33 113/106/31
f 114/107/32 119/108/34 115/109/30
f 112/18/33 117/110/35 113/106/31
f 162/111/6 115/109/30 119/108/34
f 113/106/31 118/112/36 114/107/32
f 119/113/34 122/114/37 123/115/38
f 116/22/39 121/116/40 117/110/35
f 162/117/6 119/113/34 123/115/38
f 117/110/35 122/114/37 118/112/36
f 162/118/6 123/119/38 127/120/41
f 121/116/40 126/121/42 122/114/37
f 123/119/38 126/121/42 127/120/41
f 120/23/43 125/122/44 121/116/40
f 162/123/6 127/124/41 131/125/45
f 125/122/44 130/126/46 126/121/42
f 127/124/41 130/126/46 131/125/45
f 124/27/47 129/127/48 125/122/44
f 131/128/45 134/129/49 135/130/50
f 128/28/51 133/131/52 129/127/48
f 162/132/6 131/128/45 135/130/50
f 129/127/48 134/129/49 130/126/46
f 134/129/49 139/133/53 135/134/50
f 132/29/54 137/135/55 133/131/52
f 162/136/6 135/134/50 139/133/53
f 133/131/52 138/137/56 134/129/49
f 162/138/6 139/139/53 143/140/57
f 137/135/55 142/141/58 138/137/56
f 139/139/53 142/141/58 143/140/57
f 136/1/59 141/142/60 137/135/55
f 141/142/60 146/143/61 142/141/58
f 143/144/57 146/143/61 147/145/62
f 140/3/63 145/146/64 141/142/60
f 162/147/6 143/144/57 147/145/62
f 146/148/61 151/149/65 147/150/62
f 144/74/66 149/151/67 145/152/64
f 162/153/6 147/150/62 151/149/65
f 146/148/61 149/151/67 150/154/68
f 148/5/69 153/155/70 149/151/67
f 162/156/6 151/157/65 155/158/71
f 149/151/67 154/159/72 150/154/68
f 151/157/65 154/159/72 155/158/71
f 162/160/6 155/161/71 159/162/73
f 153/155/70 158/163/74 154/159/72
f 155/161/71 158/163/74 159/162/73
f 152/9/75 157/164/76 153/155/70
f 158/163/74 99/165/15 159/166/73
f 156/13/77 98/92/21 157/164/76
f 162/167/6 159/166/73 99/165/15
f 158/163/74 98/92/21 161/89/17
f 166/168/78 167/79/79 188/58/80
f 163/169/81 166/168/78 186/170/82
f 169/171/83 170/60/84 189/59/85
f 166/168/78 168/172/86 169/171/83
f 168/173/86 172/174/87 169/171/83
f 172/174/87 173/85/88 190/61/89
f 172/174/87 174/175/90 175/176/91
f 175/176/91 176/71/92 191/73/93
f 174/177/90 178/178/94 175/176/91
f 178/178/94 179/84/95 192/72/96
f 177/179/97 181/41/98 178/178/94
f 181/41/98 182/180/99 193/69/100
f 180/181/101 184/182/102 181/183/98
f 184/182/102 185/78/103 194/55/104
f 183/184/105 186/170/82 184/182/102
f 186/170/82 164/57/106 195/56/107
f 168/173/86 187/185/1 171/186/108
f 165/187/109 187/188/1 168/172/86
f 171/189/108 187/190/1 174/175/90
f 177/191/97 174/177/90 187/192/1
f 180/193/101 177/179/97 187/194/1
f 183/195/105 180/181/101 187/196/1
f 163/197/81 183/184/105 187/198/1
f 163/169/81 187/199/1 165/200/109
f 161/89/17 98/92/21 101/90/18
f 161/89/17 102/91/19 103/88/16
f 160/20/20 100/25/23 101/90/18
f 102/91/19 106/97/25 107/93/22
f 100/25/23 104/16/26 105/95/24
f 102/91/19 101/90/18 105/95/24
f 104/16/26 108/17/110 109/98/27
f 105/95/24 109/98/27 110/102/29
f 106/97/25 110/102/29 111/101/28
f 110/102/29 109/98/27 113/106/31
f 110/102/29 114/107/32 115/105/30
f 109/98/27 108/17/110 112/18/33
f 114/107/32 118/112/36 119/108/34
f 112/18/33 116/22/39 117/110/35
f 113/106/31 117/110/35 118/112/36
f 119/113/34 118/112/36 122/114/37
f 116/22/39 120/23/43 121/116/40
f 117/110/35 121/116/40 122/114/37
f 121/116/40 125/122/44 126/121/42
f 123/119/38 122/114/37 126/121/42
f 120/23/43 124/27/47 125/122/44
f 125/122/44 129/127/48 130/126/46
f 127/124/41 126/121/42 130/126/46
f 124/27/47 128/28/51 129/127/48
f 131/128/45 130/126/46 134/129/49
f 128/28/51 132/29/54 133/131/52
f 129/127/48 133/131/52 134/129/49
f 134/129/49 138/137/56 139/133/53
f 132/29/54 136/1/59 137/135/55
f 133/131/52 137/135/55 138/137/56
f 137/135/55 141/142/60 142/141/58
f 139/139/53 138/137/56 142/141/58
f 136/1/59 140/3/63 141/142/60
f 141/142/60 145/146/64 146/143/61
f 143/144/57 142/141/58 146/143/61
f 140/3/63 144/4/66 145/146/64
f 146/148/61 150/154/68 151/149/65
f 144/74/66 148/5/69 149/151/67
f 146/148/61 145/152/64 149/151/67
f 148/5/69 152/9/75 153/155/70
f 149/151/67 153/155/70 154/159/72
f 151/157/65 150/154/68 154/159/72
f 153/155/70 157/164/76 158/163/74
f 155/161/71 154/159/72 158/163/74
f 152/9/75 156/13/77 157/164/76
f 158/163/74 161/89/17 99/165/15
f 156/13/77 160/20/20 98/92/21
f 158/163/74 157/164/76 98/92/21
f 188/58/80 164/57/106 186/170/82
f 186/170/82 166/168/78 188/58/80
f 163/169/81 165/200/109 166/168/78
f 189/59/85 167/79/79 166/168/78
f 166/168/78 169/171/83 189/59/85
f 166/168/78 165/187/109 168/172/86
f 168/173/86 171/186/108 172/174/87
f 190/61/89 170/60/84 169/171/83
f 169/171/83 172/174/87 190/61/89
f 172/174/87 171/189/108 174/175/90
f 191/73/93 173/85/88 172/174/87
f 172/174/87 175/176/91 191/73/93
f 174/177/90 177/191/97 178/178/94
f 192/72/96 176/71/92 175/176/91
f 175/176/91 178/178/94 192/72/96
f 177/179/97 180/193/101 181/41/98
f 193/69/100 179/84/95 178/178/94
f 178/178/94 181/41/98 193/69/100
f 180/181/101 183/195/105 184/182/102
f 194/55/104 182/54/99 181/183/98
f 181/183/98 184/182/102 194/55/104
f 183/184/105 163/197/81 186/170/82
f 195/56/107 185/78/103 184/182/102
f 184/182/102 186/170/82 195/56/107
